<svg xmlns="http://www.w3.org/2000/svg" width="24.5" height="14" viewBox="0 0 24.5 14">
  <path id="Path_501" data-name="Path 501" d="M17.009,128.192l-.387.387a.656.656,0,0,0,0,.928l4.59,4.563H.656a.656.656,0,0,0-.656.656v.547a.656.656,0,0,0,.656.656H21.213l-4.59,4.563a.656.656,0,0,0,0,.928l.387.387a.656.656,0,0,0,.928,0l6.37-6.344a.656.656,0,0,0,0-.928l-6.37-6.344A.656.656,0,0,0,17.009,128.192Z" transform="translate(0 -128)" fill="#1a202c" opacity="0.8" style="mix-blend-mode: difference;isolation: isolate"/>
</svg>
