<svg fill="#ffffff" id="Capa_1" enable-background="new 0 0 512 512" height="512" viewBox="0 0 512 512" width="512" xmlns="http://www.w3.org/2000/svg"><path d="m249.89 90.845h70.271c8.284 0 15-6.716 15-15s-6.716-15-15-15h-70.271c-8.284 0-15 6.716-15 15s6.715 15 15 15z"/><path d="m249.89 150.987h139.22c8.284 0 15-6.716 15-15s-6.716-15-15-15h-139.22c-8.284 0-15 6.716-15 15s6.715 15 15 15z"/><path d="m468 198.107v-170.393c0-15.281-12.433-27.714-27.714-27.714h-241.572c-15.281 0-27.714 12.433-27.714 27.714v170.393c-11.313 2.306-21.364 8.104-29 16.203-10.036-10.645-24.25-17.31-40-17.31h-47c-30.327 0-55 24.673-55 55v205c0 30.327 24.673 55 55 55h47c15.75 0 29.964-6.665 40-17.31 10.036 10.645 24.25 17.31 40 17.31h275c30.327 0 55-24.673 55-55v-205c0-26.561-18.926-48.783-44-53.893zm-30-168.107v167h-237v-167zm-311 427c0 13.785-11.215 25-25 25h-47c-13.785 0-25-11.215-25-25v-205c0-13.785 11.215-25 25-25h47c13.785 0 25 11.215 25 25zm355 0c0 13.785-11.215 25-25 25h-275c-13.785 0-25-11.215-25-25v-205c0-13.785 11.215-25 25-25h275c13.785 0 25 11.215 25 25z"/><path d="m249.5 279.5h-20c-8.284 0-15 6.716-15 15s6.716 15 15 15h20c8.284 0 15-6.716 15-15s-6.716-15-15-15z"/><path d="m329.5 279.5h-20c-8.284 0-15 6.716-15 15s6.716 15 15 15h20c8.284 0 15-6.716 15-15s-6.716-15-15-15z"/><path d="m409.5 279.5h-20c-8.284 0-15 6.716-15 15s6.716 15 15 15h20c8.284 0 15-6.716 15-15s-6.716-15-15-15z"/><path d="m249.5 339.5h-20c-8.284 0-15 6.716-15 15s6.716 15 15 15h20c8.284 0 15-6.716 15-15s-6.716-15-15-15z"/><path d="m329.5 339.5h-20c-8.284 0-15 6.716-15 15s6.716 15 15 15h20c8.284 0 15-6.716 15-15s-6.716-15-15-15z"/><path d="m409.5 339.5h-20c-8.284 0-15 6.716-15 15s6.716 15 15 15h20c8.284 0 15-6.716 15-15s-6.716-15-15-15z"/><path d="m249.5 399.5h-20c-8.284 0-15 6.716-15 15s6.716 15 15 15h20c8.284 0 15-6.716 15-15s-6.716-15-15-15z"/><path d="m329.5 399.5h-20c-8.284 0-15 6.716-15 15s6.716 15 15 15h20c8.284 0 15-6.716 15-15s-6.716-15-15-15z"/><path d="m409.5 399.5h-20c-8.284 0-15 6.716-15 15s6.716 15 15 15h20c8.284 0 15-6.716 15-15s-6.716-15-15-15z"/></svg>